PathFileType	4	(X/Y/Z)	OpenSim_Sub01_CSBaseline_Magnet.trc
DataRate	CameraRate	NumFrames	NumMarkers	Units	OrigDataRate	OrigDataStartFrame	OrigNumFrames
100	100	13	8	m	100	744	5950
Frame#	Time	torso_imu_offset_imu	pelvis_imu_offset_imu	tibia_r_imu_offset_imu	femur_r_imu_offset_imu	tibia_l_imu_offset_imu	femur_l_imu_offset_imu	toes_r_imu_offset_imu	toes_l_imu_offset_imu
				X1	Y1	Z1	X2	Y2	Z2	X3	Y3	Z3	X4	Y4	Z4	X5	Y5	Z5	X6	Y6	Z6	X7	Y7	Z7	X8		Y8	Z8	

744	7.43000000	-0.92763460	-0.02973952	0.14931843	-0.68155996	0.06900405	-0.64768567	-0.50241261	-0.64159800	-0.02144640	-0.60381860	-0.56528393	0.08892407	-0.69997265	0.39290335	0.08012859	-0.51800499	-0.20340568	0.16785252	-0.71010013	-0.12309446	-0.27690044	-0.64189028	-0.14845461	-0.45915668
745	7.44000000	-0.92843209	-0.03047475	0.14930827	-0.68241546	0.07053138	-0.64340970	-0.49529008	-0.64447379	-0.02204710	-0.60170006	-0.56654888	0.08667406	-0.71013039	0.36760878	0.08944241	-0.51802525	-0.20091670	0.16863467	-0.70795646	-0.12512945	-0.27626550	-0.62529572	-0.16067779	-0.48097850
746	7.45000000	-0.93009856	-0.03217784	0.14945660	-0.68398522	0.07180259	-0.63988478	-0.48980241	-0.64846455	-0.02261728	-0.59790603	-0.56766867	0.08570164	-0.71984700	0.34397443	0.09686526	-0.51810372	-0.19980933	0.16934959	-0.70734908	-0.12664444	-0.27471577	-0.60945302	-0.17243535	-0.49915898
747	7.46000000	-0.93234199	-0.03486193	0.14968690	-0.68643353	0.07357123	-0.63879676	-0.48573486	-0.65503247	-0.02405469	-0.59210599	-0.56971718	0.08690170	-0.73060419	0.32163828	0.10072914	-0.51834664	-0.19907527	0.17003494	-0.70887939	-0.12697210	-0.27174830	-0.59445185	-0.18318116	-0.51361052
748	7.47000000	-0.93378744	-0.03748686	0.14972743	-0.68931561	0.07660747	-0.63845924	-0.48006263	-0.66334976	-0.02717768	-0.58706818	-0.57268422	0.08828440	-0.73916345	0.30258419	0.10389322	-0.51824934	-0.19682683	0.16967439	-0.71096967	-0.12792985	-0.26800269	-0.57997828	-0.19329955	-0.52581833
749	7.48000000	-0.93310133	-0.03904079	0.14926276	-0.69209587	0.08150602	-0.63691762	-0.46984375	-0.67224701	-0.03261151	-0.58562319	-0.57640066	0.08771363	-0.74212618	0.28893330	0.10946140	-0.51729019	-0.19138184	0.16735735	-0.71195090	-0.13142046	-0.26427572	-0.56585542	-0.20324225	-0.53724426
750	7.49000000	-0.93089011	-0.04027517	0.14779954	-0.69415229	0.08702697	-0.63415893	-0.45691669	-0.68022682	-0.03909895	-0.58691709	-0.58057060	0.08557245	-0.74103416	0.28094714	0.11674054	-0.51562569	-0.18440810	0.16473764	-0.71225552	-0.13675730	-0.26139108	-0.55388475	-0.21285697	-0.54691186
751	7.50000000	-0.92890176	-0.04297566	0.14474397	-0.69481464	0.09085427	-0.63131385	-0.44592832	-0.68560567	-0.04427696	-0.58792788	-0.58482189	0.08372666	-0.74033248	0.27779149	0.12280140	-0.51381119	-0.17954252	0.16497271	-0.71355259	-0.14173098	-0.26018302	-0.54702839	-0.22163154	-0.55241078
752	7.51000000	-0.92826455	-0.04765195	0.14045909	-0.69400990	0.09196595	-0.62914812	-0.43906865	-0.68824660	-0.04678650	-0.58679719	-0.58847654	0.08333734	-0.74211055	0.27890360	0.12553267	-0.51215032	-0.17892895	0.16928979	-0.71686306	-0.14515053	-0.26036634	-0.54688016	-0.22830526	-0.55228395
753	7.52000000	-0.92869116	-0.05193690	0.13744586	-0.69299899	0.09225844	-0.62758016	-0.43296464	-0.69146883	-0.04754061	-0.58432553	-0.59017617	0.08395026	-0.74311799	0.28435793	0.12471252	-0.51037353	-0.18132293	0.17456599	-0.72172617	-0.14814130	-0.25915768	-0.55194740	-0.22995764	-0.54724257
754	7.53000000	-0.92969578	-0.05339438	0.13805282	-0.69309095	0.09386077	-0.62637211	-0.42383873	-0.69866853	-0.04777224	-0.58161270	-0.58877222	0.08486977	-0.73976745	0.29417316	0.12062553	-0.50820081	-0.18510019	0.17747548	-0.72747130	-0.15204067	-0.25381892	-0.56046486	-0.22392174	-0.53829861
755	7.54000000	-0.93072070	-0.05289435	0.14006876	-0.69422859	0.09722653	-0.62485626	-0.41150750	-0.70920801	-0.04884307	-0.57913438	-0.58623203	0.08516388	-0.73245212	0.30690125	0.11614516	-0.50604462	-0.18944876	0.17867441	-0.73333152	-0.15714003	-0.24556859	-0.57216471	-0.21246675	-0.52654035
756	7.55000000	-0.93116795	-0.05325014	0.13860511	-0.69555033	0.10181946	-0.62211522	-0.39790481	-0.72007461	-0.05218539	-0.57699853	-0.58634921	0.08376489	-0.72391027	0.32023183	0.11565841	-0.50472350	-0.19403489	0.18116059	-0.73848641	-0.16311370	-0.23794822	-0.58765672	-0.20076369	-0.51309670
